<svg id="Layer_1" data-name="Layer 1" xmlns="http://www.w3.org/2000/svg" viewBox="0 0 350 350">

<defs>
	<style>.cls-1{fill:none;stroke:#D8DEE9;stroke-miterlimit:10;stroke-width:13px;}</style>
</defs>

<rect class="cls-1" x="12.46" y="111.23" width="325.26" height="179.27" rx="3.48"/>
<rect class="cls-1" x="149.47" y="220.07" width="60.19" height="70.43"/>
<rect class="cls-1" x="7.33" y="75.84" width="335.5" height="39.7" rx="3.8" transform="translate(350.17 191.38) rotate(180)"/>
<path class="cls-1" d="M145.05,115.33l-.06.47-3.58,27.84a4.85,4.85,0,0,0,4.2,5.44l50,6.44a4.84,4.84,0,0,0,5.44-4.2l3.83-29.73a4.85,4.85,0,0,0-4.2-5.44L198,115.8l-3.67-.47"/>
<path class="cls-1" d="M205.24,115.33l-.06.47-3.59,27.84a4.86,4.86,0,0,0,4.2,5.44l50,6.44a4.85,4.85,0,0,0,5.45-4.2l3.82-29.73a4.84,4.84,0,0,0-4.2-5.44l-2.68-.35-3.68-.47"/>
<path class="cls-1" d="M266.71,115.33l-.07.47-3.58,27.84a4.85,4.85,0,0,0,4.2,5.44l50,6.44a4.84,4.84,0,0,0,5.44-4.2l3.83-29.73a4.85,4.85,0,0,0-4.2-5.44l-2.69-.35-3.67-.47"/>
<path class="cls-1" d="M77.19,115.33l-.07.47-3.58,27.84a4.85,4.85,0,0,0,4.2,5.44l50,6.44a4.84,4.84,0,0,0,5.44-4.2l3.83-29.73a4.85,4.85,0,0,0-4.2-5.44l-2.69-.35-3.67-.47"/>
<path class="cls-1" d="M14.44,115.33l-.06.47-3.59,27.84a4.86,4.86,0,0,0,4.2,5.44l50,6.44a4.85,4.85,0,0,0,5.45-4.2l3.83-29.73a4.86,4.86,0,0,0-4.2-5.44l-2.69-.35-3.68-.47"/>
<rect class="cls-1" x="241.67" y="194.46" width="60.19" height="39.7" rx="0.37"/>
<rect class="cls-1" x="48.64" y="194.46" width="60.19" height="39.7" rx="0.37"/>
<rect class="cls-1" x="241.67" y="30.55" width="30.18" height="39.7"/>

</svg>
