<svg id="Layer_1" data-name="Layer 1" xmlns="http://www.w3.org/2000/svg" viewBox="0 0 350 350"><defs><style>.cls-1{fill:#3b4252;}</style></defs><polygon class="cls-1" points="73.55 277.5 73.55 44.5 92.33 44.5 92.33 271.05 91.7 277.5 73.55 277.5"/><path class="cls-1" d="M91.83,45V271l-.58,6H74.05V45H91.83m1-1H73.05V278h19.1l.68-6.95V44Z"/><path class="cls-1" d="M47.11,303.7a32.14,32.14,0,0,1-16.34-16.89l-.13-.31h0a31.85,31.85,0,0,1-2.27-11.82V85.23H47.11Z"/><path class="cls-1" d="M46.61,85.73V302.91a31.62,31.62,0,0,1-15.38-16.29L31,286.1a31.17,31.17,0,0,1-2.15-11.42V85.73H46.61m1-1H27.83v190A32.37,32.37,0,0,0,30.26,287h0a32.42,32.42,0,0,0,17.31,17.46V84.73Z"/><rect class="cls-1" x="213.36" y="156.09" width="72.31" height="9.47"/><path class="cls-1" d="M285.18,156.59v8.47H213.86v-8.47h71.32m1-1H212.86v10.47h73.32V155.59Z"/><rect class="cls-1" x="213.36" y="181.2" width="59.48" height="9.47"/><path class="cls-1" d="M272.35,181.7v8.47H213.86V181.7h58.49m1-1H212.86v10.47h60.49V180.7Z"/><rect class="cls-1" x="213.36" y="130.87" width="72.31" height="9.47"/><path class="cls-1" d="M285.18,131.37v8.47H213.86v-8.47h71.32m1-1H212.86v10.47h73.32V130.37Z"/><rect class="cls-1" x="107.33" y="74.87" width="178" height="29.63"/><path class="cls-1" d="M284.83,75.37V104h-177V75.37h177m1-1h-179V105h179V74.37Z"/><rect class="cls-1" x="107.19" y="252.5" width="121.97" height="11"/><path class="cls-1" d="M228.66,253v10h-121V253h121m1-1h-123v12h123V252Z"/><rect class="cls-1" x="107.36" y="231.87" width="176.97" height="9.47"/><path class="cls-1" d="M283.83,232.37v8.47h-176v-8.47h176m1-1h-178v10.47h178V231.37Z"/><rect class="cls-1" x="107.36" y="210.87" width="176.97" height="9.47"/><path class="cls-1" d="M283.83,211.37v8.47h-176v-8.47h176m1-1h-178v10.47h178V210.37Z"/><path class="cls-1" d="M301.64,291.37V53.81h18.78V280.75l-1.82,6.11a33,33,0,0,1-2.31,4.51Z"/><path class="cls-1" d="M319.92,54.31V280.67l-1.78,6a33.19,33.19,0,0,1-2.13,4.21H302.14V54.31h17.78m1-1H301.14V291.87h15.42a33,33,0,0,0,2.52-4.87l1.84-6.18V53.31Z"/><rect class="cls-1" x="73.55" y="44.5" width="246.87" height="17"/><path class="cls-1" d="M319.93,45V61H74.05V45H319.93m1-1H73.05V62H320.93V44Z"/><rect class="cls-1" x="28.33" y="85.23" width="64" height="14.13"/><path class="cls-1" d="M91.83,85.73V98.86h-63V85.73h63m1-1h-65V99.86h65V84.73Z"/><path class="cls-1" d="M60.19,306.5a31.22,31.22,0,0,1-6.4-.65l-.78-.17c-.52-.12-1-.24-1.53-.38l-.07,0h0l-.65-.2c-.5-.16-1-.33-1.49-.51s-1-.37-1.44-.57a32.14,32.14,0,0,1-16.75-16.5H318.32a31.87,31.87,0,0,1-29.13,19Z"/><path class="cls-1" d="M317.54,288a31.26,31.26,0,0,1-28.35,18h-229a30.6,30.6,0,0,1-6.3-.64l-.75-.16-1.51-.38-.12,0-.6-.19-1.46-.5c-.43-.16-.9-.34-1.43-.56A31.6,31.6,0,0,1,31.84,288h285.7m1.54-1H30.3a32.42,32.42,0,0,0,17.31,17.46c.48.2,1,.4,1.47.58l1.5.51.74.23h0c.51.14,1,.27,1.55.39l.79.17a31.61,31.61,0,0,0,6.49.66h229a32.29,32.29,0,0,0,27.37-15.13,33,33,0,0,0,2.52-4.87Z"/><path class="cls-1" d="M191.55,130.85V188.5H119V130.85h72.58m12-12H107V200.5h96.58V118.85Z"/><path class="cls-1" d="M60.33,297a18.41,18.41,0,0,1-4.23-.48l-.17,0-.4-.09-1.13-.32-.33-.12c-.38-.13-.76-.28-1.14-.43l-.24-.1-.39-.17-.12-.05-.21-.1A25,25,0,0,1,39.66,281l0-.15A23.45,23.45,0,0,0,53.89,294l1.48.47H65.62l1.47-.47a23.12,23.12,0,0,0,12.46-9.69l-.41.75C74.94,292.52,67.91,297,60.34,297Z"/><path class="cls-1" d="M47.71,237h0l-.25.13h0c-.33.15-.65.32-1,.49-11,5.84-18.59,18.4-18.59,32.93a40.31,40.31,0,0,0,2.45,13.89,34.84,34.84,0,0,0,17.4,19.68l.75.34c.26.11.51.22.76.31.5.2,1,.4,1.51.58.24.09.49.18.74.25h0c.51.16,1,.31,1.56.44l.79.2a28.77,28.77,0,0,0,6.52.74h0c11.59,0,21.75-6.82,27.51-17.05a39.16,39.16,0,0,0,2.53-5.49,40.3,40.3,0,0,0,2.44-13.89c0-13.95-7-26-17.26-32.17-.65-.4-1.33-.77-2-1.11h0l-.27-.14v36.26a14.14,14.14,0,0,1-9.21,11H56.92a14.12,14.12,0,0,1-9.21-11V237Z"/><path class="cls-1" d="M301.14,244.64v32.54a12.54,12.54,0,0,1-8.8,9.82h-33c.07.16.14.33.22.5a32.32,32.32,0,0,0,57,4.37,33,33,0,0,0,2.52-4.87,32.17,32.17,0,0,0,1.84-6.18V268.54a32.33,32.33,0,0,0-19.78-23.9Z"/></svg>