<svg id="Layer_1" data-name="Layer 1" xmlns="http://www.w3.org/2000/svg" viewBox="0 0 350 350">

<defs>
	<style>.cls-1{fill:#D8DEE9;}</style>
</defs>

<rect class="cls-1" x="32.83" y="276.18" width="284" height="22.55"/>
<rect class="cls-1" x="32.83" y="144.18" width="284" height="22.55"/>
<rect class="cls-1" x="32.83" y="11.18" width="284" height="22.55"/>
<rect class="cls-1" x="43.98" y="60.58" width="31.37" height="78.42"/>
<rect class="cls-1" x="85.57" y="60.58" width="31.37" height="78.42"/>
<rect class="cls-1" x="127.16" y="60.58" width="31.37" height="78.42"/>
<rect class="cls-1" x="168.75" y="60.58" width="31.37" height="78.42"/>
<rect class="cls-1" x="219.02" y="62.57" width="29.87" height="74.67" transform="translate(-20.22 110.44) rotate(-25.5)"/>
<rect class="cls-1" x="218.26" y="193.14" width="30.74" height="76.86"/>
<rect class="cls-1" x="173.62" y="193.14" width="30.74" height="76.86"/>
<rect class="cls-1" x="127.97" y="193.14" width="30.74" height="76.86"/>
<rect class="cls-1" x="86.33" y="193.14" width="30.74" height="76.86"/>
<rect class="cls-1" x="42.69" y="193.14" width="30.74" height="76.86"/>
<rect class="cls-1" x="5.23" y="6" width="24.39" height="334"/>
<rect class="cls-1" x="319.96" y="8.6" width="23.95" height="331.4"/>

</svg>
